<?xml version="1.0" encoding="UTF-8" standalone="no"?>
<svg
   xmlns:dc="http://purl.org/dc/elements/1.1/"
   xmlns:cc="http://creativecommons.org/ns#"
   xmlns:rdf="http://www.w3.org/1999/02/22-rdf-syntax-ns#"
   xmlns:svg="http://www.w3.org/2000/svg"
   xmlns="http://www.w3.org/2000/svg"
   xmlns:sodipodi="http://sodipodi.sourceforge.net/DTD/sodipodi-0.dtd"
   xmlns:inkscape="http://www.inkscape.org/namespaces/inkscape"
   version="1.1"
   id="svg2"
   viewBox="0 0 744.09449 744.09445"
   height="210mm"
   width="210mm"
   sodipodi:docname="SBTCVM-FINAL-NEW.svg"
   inkscape:version="0.92.1 r15371"
   inkscape:export-filename="/home/tomj/MyCodeProjects/logictests/SBTCVMblog-gen2/new_icons/SBTCVM-PLAIN.png"
   inkscape:export-xdpi="30"
   inkscape:export-ydpi="30">
  <sodipodi:namedview
     pagecolor="#ffffff"
     bordercolor="#666666"
     borderopacity="1"
     objecttolerance="10"
     gridtolerance="10"
     guidetolerance="10"
     inkscape:pageopacity="0"
     inkscape:pageshadow="2"
     inkscape:window-width="1310"
     inkscape:window-height="744"
     id="namedview23"
     showgrid="false"
     inkscape:zoom="0.29734127"
     inkscape:cx="-166.47538"
     inkscape:cy="396.85039"
     inkscape:window-x="56"
     inkscape:window-y="0"
     inkscape:window-maximized="1"
     inkscape:current-layer="layer1" />
  <defs
     id="defs4">
    <filter
       id="filter3364"
       style="color-interpolation-filters:sRGB"
       x="-0.25"
       width="1.5"
       y="-0.25"
       height="1.5">
      <feGaussianBlur
         id="feGaussianBlur3366"
         result="result8"
         stdDeviation="4" />
      <feTurbulence
         id="feTurbulence3368"
         baseFrequency="0.01 0.01"
         numOctaves="7"
         type="turbulence"
         result="result7"
         seed="50" />
      <feColorMatrix
         id="feColorMatrix3370"
         values="1 0 0 0 0 0 1 0 0 0 0 0 1 0 0 0 0 0 1.4 0 "
         result="result5" />
      <feComposite
         id="feComposite3372"
         in2="result8"
         operator="in"
         in="result5"
         result="result6" />
      <feDisplacementMap
         id="feDisplacementMap3374"
         in2="result6"
         result="result4"
         scale="100"
         yChannelSelector="A"
         xChannelSelector="A"
         in="result5" />
      <feFlood
         id="feFlood3376"
         flood-color="rgb(224,224,224)"
         flood-opacity="1" />
      <feComposite
         id="feComposite3378"
         in2="result4"
         operator="atop"
         result="result2" />
      <feComposite
         id="feComposite3380"
         result="result9"
         in2="SourceGraphic"
         operator="atop"
         in="result2" />
      <feBlend
         id="feBlend3382"
         in2="result9"
         mode="darken"
         result="fbSourceGraphic" />
      <feGaussianBlur
         id="feGaussianBlur3384"
         result="result0"
         in="fbSourceGraphic"
         stdDeviation="5" />
      <feSpecularLighting
         id="feSpecularLighting3386"
         specularExponent="30"
         specularConstant="0.80000001"
         surfaceScale="8"
         lighting-color="#ffffff"
         result="result1"
         in="result0">
        <feDistantLight
           id="feDistantLight3388"
           azimuth="235"
           elevation="55" />
      </feSpecularLighting>
      <feComposite
         id="feComposite3390"
         operator="in"
         result="result2"
         in="result1"
         in2="fbSourceGraphic" />
      <feComposite
         k4="0"
         k1="0"
         id="feComposite3392"
         in2="result2"
         k3="1"
         k2="1"
         operator="arithmetic"
         result="result4"
         in="fbSourceGraphic" />
    </filter>
  </defs>
  <metadata
     id="metadata7">
    <rdf:RDF>
      <cc:Work
         rdf:about="">
        <dc:format>image/svg+xml</dc:format>
        <dc:type
           rdf:resource="http://purl.org/dc/dcmitype/StillImage" />
        <dc:title></dc:title>
      </cc:Work>
    </rdf:RDF>
  </metadata>
  <g
     transform="translate(0,-308.26781)"
     id="layer1">
    <rect
       ry="106.77522"
       y="312.36227"
       x="5.7142901"
       height="734.28571"
       width="734.28571"
       id="rect3396"
       style="fill:#3d3dff;fill-opacity:1" />
    <path
       style="fill:#f9f9f9"
       d="M 346.13767,1018.943 C 205.65744,1008.871 93.264844,924.14323 61.671139,804.49633 56.940326,786.58048 55.68379,779.25861 53.923309,759.34962 51.967514,737.23169 51.96441,733.9374 53.878363,711.75936 c 1.6103,-18.65907 2.995882,-27.30327 6.387878,-39.85197 2.382355,-8.81347 4.345975,-18.12499 4.363619,-20.69223 0.01766,-2.56724 -2.908451,-41.19795 -6.502436,-85.84602 -3.593986,-44.64807 -6.210943,-81.50189 -5.815458,-81.89738 0.395486,-0.39548 39.58003,-1.15504 87.076774,-1.68792 l 86.35773,-0.96886 10.91197,-4.29198 10.91197,-4.29199 56.61579,-59.56857 c 31.13869,-32.76272 59.5246,-62.52578 63.07978,-66.14015 l 6.46397,-6.57157 63.22091,66.37842 63.22095,66.37842 12.6493,4.5577 12.64931,4.55772 81.82841,0.73028 81.82839,0.7303 0,3.60693 c 0,1.98379 -2.57182,35.05 -5.71517,73.48044 -3.14333,38.43045 -5.48417,72.69521 -5.20184,76.14392 0.28233,3.4487 3.36155,16.71056 6.84272,29.47077 5.52776,20.26204 6.58196,26.10753 8.32363,46.15428 1.82845,21.04559 1.82602,24.90321 -0.0293,46.40078 -1.73841,20.14283 -2.87081,26.62785 -8.03599,46.02024 -27.87445,104.65303 -116.67198,183.19203 -234.45828,207.37198 -23.15633,4.7537 -31.34933,5.6794 -72.73636,8.2184 -4.48332,0.275 -18.87384,-0.2687 -31.97892,-1.2083 z M 490.0109,907.32247 c 0.38482,-0.38481 0.39868,-1.85065 0.0308,-3.25742 -0.6031,-2.3063 -1.31807,-2.47665 -7.27187,-1.73278 -9.02899,1.12811 -29.94866,-1.34554 -42.74854,-5.0548 -27.41011,-7.94314 -48.95991,-24.92166 -61.20293,-48.22017 l -4.46392,-8.49498 0,-32.26669 0,-32.2667 17.55701,-19.83748 c 9.65638,-10.91061 17.55706,-20.15117 17.55706,-20.53458 0,-0.38342 -17.49436,-0.69712 -38.87633,-0.69712 -21.38199,0 -38.86664,0.42326 -38.8548,0.94055 0.0107,0.51731 8.185,10.25208 18.16256,21.6328 l 18.14103,20.69224 0.0215,30.46128 c 0.0241,34.05809 0.32145,32.65494 -10.21598,48.20494 -19.00961,28.05235 -48.35125,42.69142 -89.14793,44.47746 -15.67502,0.68624 -17.24353,0.96614 -17.24353,3.07697 0,2.13454 1.24052,2.32073 15.36242,2.30558 43.09161,-0.0462 77.3051,-17.70333 98.19229,-50.67573 l 6.02533,-9.51153 3.42313,6.2597 c 7.46263,13.64643 18.85513,26.24368 31.65777,35.00544 13.09321,8.96064 34.56743,16.98992 51.63441,19.30626 5.97529,0.81097 31.48863,0.95867 32.26054,0.18676 z M 197.0821,720.8514 c -4.15743,-9.9241 -5.18885,-16.29262 -5.12841,-31.66539 0.0531,-13.47951 0.53183,-17.57139 2.76487,-23.6269 2.41891,-6.55947 2.4775,-7.24371 0.56139,-6.55543 -10.69451,3.84148 -75.45854,30.3463 -75.47778,30.88944 -0.0233,0.65835 74.59214,32.08893 76.89156,32.38933 0.57479,0.0752 0.74954,-0.56886 0.38837,-1.43105 z m 62.15907,-15.11607 c 20.4913,-8.4004 36.85699,-15.64829 36.36817,-16.10638 -1.04626,-0.98055 -75.46838,-31.16778 -76.83947,-31.16778 -0.51366,0 0.26941,2.96275 1.74014,6.58389 2.30372,5.67204 2.67405,9.10235 2.67405,24.76799 0,15.90401 -0.35032,19.04895 -2.7939,25.0815 -1.53665,3.79358 -2.7942,7.09887 -2.79455,7.34511 -8.3e-4,0.58664 -1.32275,1.11053 41.64556,-16.50433 z m 263.09406,16.32668 c 0,-0.19633 -1.24585,-3.72342 -2.76856,-7.83796 -2.34922,-6.34787 -2.76857,-10.04534 -2.76857,-24.411 0,-14.26409 0.42727,-18.0833 2.71337,-24.25394 2.42672,-6.55024 2.48734,-7.24202 0.57393,-6.54866 -11.34562,4.11118 -75.45462,30.343 -75.47549,30.88267 -0.0243,0.63038 74.46896,32.05317 76.78476,32.38933 0.5173,0.0752 0.94056,-0.0241 0.94056,-0.22044 z m 61.69856,-16.31822 c 20.48423,-8.41703 36.84991,-15.67843 36.36817,-16.13641 -1.03101,-0.98016 -75.43007,-31.14621 -76.81643,-31.14621 -0.51927,0 0.25919,2.96275 1.72993,6.58389 2.30372,5.67204 2.67405,9.10235 2.67405,24.76799 0,15.90401 -0.35032,19.04895 -2.79389,25.0815 -1.53666,3.79358 -2.79421,7.09887 -2.79456,7.34511 -8.7e-4,0.61508 -0.24608,0.71225 41.63273,-16.49587 z M 159.5232,564.55427 l 64.20052,-68.49583 -79.13549,-0.32295 c -43.52454,-0.17761 -79.262388,-0.17761 -79.417452,0 -0.19177,0.21966 12.265136,146.58008 13.184657,154.9112 0.04749,0.4303 4.031166,-3.79507 81.167765,-86.09242 z m -47.27054,4.86756 0,-16.30297 -16.93001,0 -16.930014,0 0,-8.77853 0,-8.77853 16.930014,0 16.93001,0 0,-16.93001 0,-16.93001 5.64334,0 5.64335,0 0,16.93001 0,16.93001 16.93001,0 16.93002,0 0,8.77853 0,8.77853 -16.93002,0 -16.93001,0 0,16.30297 0,16.30298 -5.64335,0 -5.64334,0 0,-16.30298 z M 362.62,649.36912 c -4.17851,-9.97444 -5.19033,-16.25829 -5.09871,-31.66539 0.0807,-13.57415 0.54802,-17.44499 2.79191,-23.12566 1.48223,-3.75245 2.52008,-6.99754 2.30634,-7.21128 -0.52458,-0.52459 -75.15735,29.60061 -76.42142,30.84717 -0.81588,0.80457 72.57484,32.29387 76.03352,32.62323 0.57478,0.0548 0.74954,-0.60589 0.38836,-1.46807 z m 62.22282,-15.00413 c 20.52637,-8.39186 36.89205,-15.66971 36.36818,-16.17301 -0.85913,-0.82543 -76.15347,-31.2131 -77.33954,-31.2131 -0.27369,0 0.70572,2.96275 2.17646,6.58389 2.3033,5.67103 2.67432,9.10516 2.67596,24.76799 10e-4,15.63274 -0.38271,19.2117 -2.73934,25.50801 -2.44544,6.53358 -2.51037,7.24084 -0.60182,6.55403 1.17669,-0.42345 18.93372,-7.63596 39.4601,-16.02781 z m 244.02481,-62.33582 c 3.54976,-41.67481 6.26415,-75.96233 6.03199,-76.1945 -0.23217,-0.23217 -35.9527,-0.27679 -79.37896,-0.0991 l -78.95684,0.32293 72.04838,76.87436 c 39.62662,42.28091 72.44279,76.4231 72.92485,75.87155 0.48204,-0.55155 3.7808,-35.10038 7.33058,-76.77518 z m -112.67237,-54.02442 0,-10.0326 52.67115,0 52.67116,0 0,10.0326 0,10.0326 -52.67116,0 -52.67115,0 0,-10.0326 z M 477.44303,469.40933 C 431.90861,420.55721 374.68253,360.61832 373.5759,360.61832 c -0.97948,0 -76.20173,79.01405 -113.12141,118.82363 l -3.19835,3.4487 116.3763,0 116.37633,0 -12.56574,-13.48132 z m -116.25646,3.61048 c -6.48099,-2.96035 -15.09744,-12.3899 -18.88878,-20.67128 -8.83192,-19.29146 -5.34994,-47.58877 7.63261,-62.02848 16.45834,-18.30564 41.72227,-14.04367 53.51889,9.02854 5.72511,11.19732 7.75859,29.95743 4.68999,43.26785 -3.26336,14.15528 -14.68833,28.65082 -24.79401,31.45767 -7.0152,1.94846 -16.58128,1.49331 -22.1587,-1.0543 z m 25.40736,-15.99638 c 2.59956,-2.05756 6.36755,-7.04243 8.45267,-11.18248 3.34823,-6.64799 3.76223,-8.71194 3.76223,-18.75665 0,-9.87851 -0.44736,-12.19773 -3.58561,-18.58892 -8.49193,-17.29412 -25.48034,-20.71316 -38.05147,-7.65815 -12.63646,13.12285 -12.34626,40.9483 0.55806,53.50756 6.13171,5.96778 9.55587,7.29198 17.57745,6.79764 5.0327,-0.31014 7.70802,-1.28649 11.28667,-4.119 z"
       id="path4251" />
  </g>
</svg>
