<?xml version="1.0" encoding="UTF-8" standalone="no"?>
<!-- Created with Inkscape (http://www.inkscape.org/) -->

<svg
   xmlns:dc="http://purl.org/dc/elements/1.1/"
   xmlns:cc="http://creativecommons.org/ns#"
   xmlns:rdf="http://www.w3.org/1999/02/22-rdf-syntax-ns#"
   xmlns:svg="http://www.w3.org/2000/svg"
   xmlns="http://www.w3.org/2000/svg"
   xmlns:sodipodi="http://sodipodi.sourceforge.net/DTD/sodipodi-0.dtd"
   xmlns:inkscape="http://www.inkscape.org/namespaces/inkscape"
   id="svg4385"
   version="1.1"
   inkscape:version="0.91 r"
   width="480.69662"
   height="508.54611"
   viewBox="0 0 480.69662 508.54611"
   sodipodi:docname="SBTCVMLOGO-singlevector.svg">
  <metadata
     id="metadata4391">
    <rdf:RDF>
      <cc:Work
         rdf:about="">
        <dc:format>image/svg+xml</dc:format>
        <dc:type
           rdf:resource="http://purl.org/dc/dcmitype/StillImage" />
        <dc:title></dc:title>
      </cc:Work>
    </rdf:RDF>
  </metadata>
  <defs
     id="defs4389" />
  <sodipodi:namedview
     pagecolor="#ffffff"
     bordercolor="#666666"
     borderopacity="1"
     objecttolerance="10"
     gridtolerance="10"
     guidetolerance="10"
     inkscape:pageopacity="0"
     inkscape:pageshadow="2"
     inkscape:window-width="1368"
     inkscape:window-height="719"
     id="namedview4387"
     showgrid="false"
     fit-margin-top="0"
     fit-margin-left="0"
     fit-margin-right="0"
     fit-margin-bottom="0"
     inkscape:zoom="0.3899801"
     inkscape:cx="-83.304963"
     inkscape:cy="111.98975"
     inkscape:window-x="0"
     inkscape:window-y="27"
     inkscape:window-maximized="1"
     inkscape:current-layer="svg4385" />
  <path
     style="fill:#000000"
     d="m 220.09204,507.58945 c -13.41736,-0.96198 -22.55462,-2.24756 -37.03125,-5.21013 -15.12051,-3.09433 -23.00335,-5.30826 -36.96668,-10.38222 C 122.24034,483.32915 103.12617,473.05366 83.84688,458.53389 54.57616,436.48931 33.36163,410.47519 18.76808,378.73158 13.21645,366.65578 10.73071,359.75647 7.43542,347.27704 3.89884,333.88382 2.95949,328.41026 1.64343,313.52704 0.17997,296.97679 0.1781,294.54621 1.61613,277.95968 2.93732,262.72118 3.78646,257.81163 7.51067,243.8788 L 11.86166,227.60106 6.46711,169.80695 C 3.50011,138.02018 0.83124,110.59426 0.53629,108.86045 L 0,105.70808 l 63.63976,0.26658 63.63975,0.26658 9.56785,-3.6767 9.56788,-3.67671 42.31965,-44.53125 C 212.01069,29.86439 233.22904,7.61463 235.88676,4.91267 L 240.71898,0 l 47.23925,49.59855 47.23925,49.59856 10.52006,3.82974 10.52005,3.82973 60.13034,0 60.13034,0 -1.2e-4,3.04687 c -7e-5,1.67579 -2.09836,27.64025 -4.66288,57.69882 -4.20117,49.24161 -4.53116,54.99575 -3.33337,58.125 0.73117,1.91018 3.21042,10.64493 5.50946,19.41056 3.46472,13.21008 4.43458,18.87405 5.66723,33.09698 1.36268,15.72332 1.36055,18.6265 -0.0256,34.6875 -1.29956,15.05803 -2.1461,19.90599 -6.0074,34.40302 -3.55769,13.35712 -5.96034,20.04469 -11.52531,32.07977 -18.95569,40.99448 -51.18167,74.60509 -93.65947,97.68365 -21.51734,11.69056 -44.71728,20.05203 -70.08757,25.26022 -17.3108,3.55369 -23.43559,4.24572 -54.375,6.14375 -3.35156,0.20561 -14.10937,-0.20086 -23.90625,-0.90327 z M 173.37231,424.6044 c 15.52208,-1.73081 30.74528,-7.1697 42.2795,-15.10545 6.57575,-4.52423 14.85746,-13.27675 19.9635,-21.09842 2.54814,-3.90336 4.63298,-7.54125 4.63298,-8.08418 0,-0.54294 1.58203,1.61999 3.51562,4.8065 8.66654,14.28223 18.31653,23.46548 32.18491,30.62821 4.48403,2.31591 12.10218,5.30598 16.92924,6.6446 7.00123,1.94154 11.68494,2.53833 23.15533,2.95038 l 14.37885,0.51651 -0.31635,-2.2182 c -0.30647,-2.14893 -0.55054,-2.20949 -7.81635,-1.93912 -8.90927,0.33151 -23.85293,-1.78472 -32.34375,-4.58033 -8.67409,-2.85594 -19.27436,-8.56815 -25.54956,-13.76799 -6.64357,-5.50509 -11.8177,-11.71571 -16.93912,-20.33241 l -3.91757,-6.59125 -0.26602,-24.3977 -0.26602,-24.39772 13.14004,-15 c 7.22702,-8.25 13.14752,-15.31641 13.15665,-15.70313 0.009,-0.38671 -13.06153,-0.70312 -29.0459,-0.70312 -15.98438,0 -29.0625,0.2304 -29.0625,0.512 0,0.28159 6.11719,7.46979 13.59375,15.97377 l 13.59375,15.46177 0,23.65521 0,23.65521 -4.34802,7.48039 c -2.83367,4.87507 -7.18071,10.29423 -12.48119,15.55946 -6.90933,6.86336 -9.60548,8.80493 -17.91761,12.903 -13.25175,6.5334 -21.69728,8.58909 -37.90943,9.22737 -12.1156,0.477 -14.46668,1.00236 -14.5169,3.24393 -0.037,1.65386 10.60737,1.99026 22.17217,0.70071 z M 108.66362,284.7472 c -0.27001,-0.64453 -1.25386,-3.49218 -2.18632,-6.32812 -1.29813,-3.94803 -1.68418,-8.01205 -1.64749,-17.34375 0.0396,-10.07678 0.39758,-13.13572 2.06692,-17.66259 1.80828,-4.90362 1.85208,-5.41513 0.41967,-4.9006 -7.99482,2.87175 -56.41,22.68577 -56.42438,23.0918 -0.0174,0.49216 55.76231,23.98849 57.48127,24.21306 0.42969,0.0562 0.56033,-0.42526 0.29033,-1.0698 z m 46.46781,-11.30021 c 15.31854,-6.27983 27.55292,-11.69808 27.1875,-12.04053 -0.78215,-0.73303 -56.41736,-23.29988 -57.44234,-23.29988 -0.38399,0 0.2014,2.21484 1.30087,4.92187 1.72217,4.24021 1.99902,6.80458 1.99902,18.51563 0,11.88925 -0.26189,14.24029 -2.08861,18.75 -1.14875,2.83594 -2.08885,5.30685 -2.08911,5.49093 -6.2e-4,0.43855 -0.98884,0.83019 31.13267,-12.33802 z m 200.19078,6.79121 c -1.81513,-4.47437 -2.06908,-6.82633 -2.06908,-19.16287 0,-12.06968 0.27548,-14.73859 1.9439,-18.8334 l 1.94389,-4.7709 -29.36631,11.74154 c -16.15146,6.45784 -29.12872,11.97975 -28.83835,12.2709 0.6239,0.62558 57.93269,24.25979 58.24291,24.01944 0.11667,-0.0904 -0.71896,-2.45951 -1.85696,-5.2647 z m 60.70733,-12.34401 c 7.73437,-3.14351 14.35351,-5.96375 14.70918,-6.26717 0.35567,-0.30343 -12.61699,-5.90279 -28.82813,-12.44303 -16.21113,-6.54024 -29.4748,-11.79906 -29.4748,-11.68626 0,0.1128 0.92027,2.72171 2.04504,5.79759 1.70303,4.65721 2.04923,7.63077 2.07006,17.78001 0.021,10.2275 -0.30789,13.12506 -2.04504,18.0173 -1.13853,3.20639 -2.07006,6.02647 -2.07006,6.26686 0,0.24037 6.64453,-2.305 14.76562,-5.65638 8.1211,-3.35139 21.09375,-8.6654 28.82813,-11.80892 z M 231.57445,230.5507 c -1.80252,-4.44807 -2.06613,-6.83893 -2.0612,-18.69412 0.006,-13.28622 0.21305,-14.57138 3.66571,-22.70282 0.48621,-1.14509 -7.83052,1.82854 -28.84222,10.3125 -16.23899,6.55687 -29.32212,12.13251 -29.07362,12.39032 0.58913,0.61122 57.88807,24.24166 58.16605,23.98804 0.11667,-0.10646 -0.71796,-2.48872 -1.85472,-5.29392 z m 46.64259,-6.50662 c 12.375,-5.09007 24.16322,-9.95414 26.19604,-10.80905 l 3.69603,-1.55437 -29.47728,-11.96352 c -16.21251,-6.57995 -29.57742,-11.88945 -29.6998,-11.79891 -0.12238,0.0906 0.70574,2.66605 1.84028,5.72335 1.75625,4.73275 2.05865,7.43942 2.03497,18.215 -0.0236,10.76745 -0.33319,13.42576 -2.07417,17.8125 -1.1255,2.83594 -2.04659,5.47832 -2.04685,5.87196 -2.5e-4,0.39363 1.58156,0.0501 3.51515,-0.76329 1.9336,-0.81345 13.64063,-5.6436 26.01563,-10.73367 z M 78.06079,172.51235 c 29.13281,-31.05281 53.10937,-56.84128 53.28125,-57.30772 0.18433,-0.50023 -24.63304,-0.84805 -60.50998,-0.84805 l -60.82246,0 5.39056,58.82812 c 2.96481,32.35547 5.42431,59.25 5.46556,59.76563 0.0412,0.51562 1.00904,-0.16856 2.15066,-1.52041 1.14161,-1.35186 25.9116,-27.86476 55.04441,-58.91757 z m -32.8125,-0.96827 0,-12.1875 -12.65625,0 -12.65625,0 0,-6.5625 0,-6.5625 12.65625,0 12.65625,0 0,-12.65625 0,-12.65625 4.21875,0 4.21875,0 0,12.65625 0,12.65625 12.65625,0 12.65625,0 0,6.5625 0,6.5625 -12.65625,0 -12.65625,0 0,12.1875 0,12.1875 -4.21875,0 -4.21875,0 0,-12.1875 z m 416.33097,3.09707 c 2.506,-29.80495 4.56765,-55.56191 4.58144,-57.2377 l 0.0251,-3.04687 -58.67187,0 c -32.46249,0 -58.53228,0.36095 -58.35938,0.808 0.59405,1.53598 106.98919,114.54657 107.42804,114.10771 0.24218,-0.24218 2.49069,-24.8262 4.99668,-54.63114 z m -84.45597,-41.53457 0,-7.5 39.375,0 39.375,0 0,7.5 0,7.5 -39.375,0 -39.375,0 0,-7.5 z M 318.25105,96.77845 C 284.21121,60.25842 241.43112,15.45033 240.60384,15.45033 c -0.73222,0 -56.96559,59.06798 -84.56537,88.82812 l -2.39097,2.57813 86.99861,0 86.99862,0 -9.39368,-10.07813 z m -86.90901,2.69906 c -4.84495,-2.21305 -11.28629,-9.26223 -14.12055,-15.45308 -4.64903,-10.15483 -4.79824,-24.75715 -0.37379,-36.58255 2.593,-6.93042 8.92417,-13.83554 15.13545,-16.50756 3.90758,-1.681 6.02711,-2.01356 10.34046,-1.62243 11.44347,1.03765 20.09131,9.61318 23.83779,23.63844 1.47625,5.5265 1.62311,17.97605 0.28074,23.79876 -2.43957,10.58195 -10.98045,21.41828 -18.53508,23.51656 -5.2443,1.45661 -12.39555,1.11636 -16.56502,-0.78814 z m 18.9936,-11.9583 c 1.94333,-1.53816 4.76014,-5.26466 6.3189,-8.35961 2.50301,-4.96979 2.8125,-6.51272 2.8125,-14.02177 0,-7.38481 -0.33443,-9.11857 -2.68047,-13.89638 -2.98984,-6.08892 -8.17333,-10.52427 -13.45814,-11.5157 -8.0132,-1.50329 -17.16053,5.07501 -20.21709,14.53911 -1.97941,6.1289 -2.07513,15.07041 -0.22792,21.29064 1.59344,5.36568 7.02489,12.19232 11.21139,14.09128 1.68996,0.76655 4.90198,1.16799 7.80333,0.97528 3.73786,-0.24827 5.77958,-0.9991 8.4375,-3.10285 z"
     id="path4405"
     inkscape:connector-curvature="0" />
</svg>
