<?xml version="1.0" encoding="UTF-8" standalone="no"?>
<svg
   xmlns:dc="http://purl.org/dc/elements/1.1/"
   xmlns:cc="http://creativecommons.org/ns#"
   xmlns:rdf="http://www.w3.org/1999/02/22-rdf-syntax-ns#"
   xmlns:svg="http://www.w3.org/2000/svg"
   xmlns="http://www.w3.org/2000/svg"
   viewBox="0 0 570 135"
   height="135"
   width="570"
   version="1.1"
   id="svg3547">
  <metadata
     id="metadata3553">
    <rdf:RDF>
      <cc:Work
         rdf:about="">
        <dc:format>image/svg+xml</dc:format>
        <dc:type
           rdf:resource="http://purl.org/dc/dcmitype/StillImage" />
        <dc:title></dc:title>
      </cc:Work>
    </rdf:RDF>
  </metadata>
  <defs
     id="defs3551" />
  <path
     id="path4375"
     d="m 453.75,109.05836 0,-14.691647 L 442.13392,72.268636 430.51786,50.170559 414.012,83.21028 397.50614,116.25 l -11.27848,0 -11.27847,0 2.69621,-5.3125 c 1.48292,-2.92187 12.11587,-23.03125 23.62878,-44.6875 11.51291,-21.65625 22.85879,-43.220996 25.21309,-47.921657 l 4.28054,-8.5466576 16.16316,28.0312136 16.16317,28.031212 11.70182,-20.109556 c 6.436,-11.060255 13.15383,-23.030731 14.9285,-26.601056 l 3.22669,-6.491503 8.918,16.491503 C 510.88792,45.811346 514.85469,53.002707 524.41113,70 529.9719,79.890534 547.5,114.51445 547.5,115.60834 c 0,0.35291 -5.2643,0.64166 -11.69845,0.64166 l -11.69845,0 L 508.05682,81.75275 492.01056,47.255501 480.4467,70.19025 468.88284,93.125 l -0.0664,15.3125 -0.0664,15.3125 -7.5,0 -7.5,0 0,-14.69164 z M 11.25,108.75 l 0,-7.5 20.431265,0 20.431266,0 2.068734,-2.285926 2.068735,-2.285925 0,-9.996183 0,-9.996181 -2.893064,-2.717892 -2.893063,-2.717893 -11.830548,0 -11.830546,0 -7.776389,-7.846131 -7.77639,-7.846133 0,-14.377478 0,-14.377479 7.846131,-7.776389 7.846133,-7.77639 22.153867,0 22.153869,0 0,7.5 0,7.5 -19.782107,0 -19.782108,0 -2.717892,2.893064 -2.717893,2.893063 0,9.389044 0,9.389044 2.893064,2.717893 2.893063,2.717892 11.830548,0 11.830546,0 7.776389,7.846131 7.77639,7.846133 0,14.377479 0,14.377477 -7.846131,7.77639 -7.846133,7.77639 -22.153867,0 -22.153869,0 0,-7.5 z m 75,-45 0,-52.5 22.22361,0 22.22361,0 7.77639,7.846131 7.77639,7.846133 0,15.173831 0,15.173831 -5.16,4.0868 -5.16001,4.0868 5.17936,4.455737 5.17936,4.455737 -0.0194,15.04699 -0.0193,15.04699 -5.98044,5.89051 -5.98044,5.89051 -24.01956,0 -24.01956,0 0,-52.5 z m 42.10694,34.782108 2.89306,-2.717893 0,-9.389044 0,-9.389044 -2.71789,-2.893063 -2.7179,-2.893064 -9.38904,0 -9.38904,0 -2.89307,2.717893 -2.89306,2.717892 0,12.282107 0,12.282108 12.10694,0 12.10694,0 2.89306,-2.717892 z m 0,-45 2.89306,-2.717893 0,-9.389044 0,-9.389043 -2.71789,-2.893064 -2.7179,-2.893064 -12.2821,0 -12.28211,0 0,13.022766 0,13.022765 0.75874,1.977235 0.75873,1.977234 11.3482,0 11.34821,0 2.89306,-2.717893 z M 176.25,71.25 l 0,-45 -7.5,0 -7.5,0 0,-7.5 0,-7.5 24.375,0 24.375,0 0,7.5 0,7.5 -7.5,0 -7.5,0 0,45 0,45 -9.375,0 -9.375,0 0,-45 z m 52.77639,37.15387 -7.77639,-7.84613 0,-36.877482 0,-36.877479 7.84614,-7.776389 7.84612,-7.77639 25.90388,0 25.90386,0 0,7.5 0,7.5 -21.65711,0 -21.6571,0 -2.7179,2.893064 -2.71789,2.893063 0,31.889044 0,31.889044 2.89306,2.717892 2.89306,2.717893 21.48194,0 21.48194,0 0,7.5 0,7.5 -25.97361,0 -25.97361,0 -7.77639,-7.84613 z m 98.58465,3.15863 C 326.93161,108.98438 320.97206,86.34375 314.36759,61.25 307.76311,36.15625 302.07191,14.640625 301.72049,13.4375 l -0.63897,-2.1875 9.41107,0 9.41105,0 1.21223,4.6875 c 0.66674,2.578125 4.10209,15.65625 7.63413,29.0625 3.53204,13.40625 6.96739,26.484375 7.63413,29.0625 l 1.21223,4.6875 2.35488,0 2.35488,0 1.24957,-4.0625 c 3.58037,-11.640232 9.27985,-30.539742 12.72238,-42.1875 2.13352,-7.21875 4.44988,-14.953125 5.14747,-17.1875 l 1.26833,-4.0625 8.73731,0 8.7373,0 -0.64499,2.1875 C 379.16874,14.640625 372.63317,37.28125 365,63.75 c -7.63318,26.46875 -14.16874,49.10938 -14.52349,50.3125 l -0.64498,2.1875 -10.49258,0 -10.49259,0 -1.23532,-4.6875 z"
     style="fill:#000000" />
</svg>
