<?xml version="1.0" encoding="UTF-8" standalone="no"?>
<!-- Created with Inkscape (http://www.inkscape.org/) -->

<svg
   xmlns:dc="http://purl.org/dc/elements/1.1/"
   xmlns:cc="http://creativecommons.org/ns#"
   xmlns:rdf="http://www.w3.org/1999/02/22-rdf-syntax-ns#"
   xmlns:svg="http://www.w3.org/2000/svg"
   xmlns="http://www.w3.org/2000/svg"
   xmlns:sodipodi="http://sodipodi.sourceforge.net/DTD/sodipodi-0.dtd"
   xmlns:inkscape="http://www.inkscape.org/namespaces/inkscape"
   width="210mm"
   height="210mm"
   viewBox="0 0 210 210"
   version="1.1"
   id="svg8"
   inkscape:version="0.92.1 r15371"
   sodipodi:docname="cerber-os.svg"
   inkscape:export-filename="/home/tomj/MyCodeProjects/logictests/SBTCVMblog-gen2/cerber-os/cerber-os495.png"
   inkscape:export-xdpi="60"
   inkscape:export-ydpi="60">
  <defs
     id="defs2">
    <clipPath
       clipPathUnits="userSpaceOnUse"
       id="clipPath4502">
      <rect
         style="opacity:1;fill:#000000;fill-opacity:1;stroke:none;stroke-width:2.46499991;stroke-linecap:round;stroke-linejoin:round;stroke-miterlimit:4;stroke-dasharray:none;stroke-dashoffset:0;stroke-opacity:1"
         id="rect4504"
         width="105.07738"
         height="77.10714"
         x="22.678572"
         y="40.732143"
         transform="scale(-1)" />
    </clipPath>
  </defs>
  <sodipodi:namedview
     id="base"
     pagecolor="#ffffff"
     bordercolor="#666666"
     borderopacity="1.0"
     inkscape:pageopacity="0.0"
     inkscape:pageshadow="2"
     inkscape:zoom="0.35"
     inkscape:cx="133.95808"
     inkscape:cy="499.65417"
     inkscape:document-units="mm"
     inkscape:current-layer="layer1"
     showgrid="false"
     inkscape:measure-start="0,0"
     inkscape:measure-end="0,0"
     inkscape:window-width="1310"
     inkscape:window-height="744"
     inkscape:window-x="56"
     inkscape:window-y="0"
     inkscape:window-maximized="1" />
  <metadata
     id="metadata5">
    <rdf:RDF>
      <cc:Work
         rdf:about="">
        <dc:format>image/svg+xml</dc:format>
        <dc:type
           rdf:resource="http://purl.org/dc/dcmitype/StillImage" />
        <dc:title></dc:title>
      </cc:Work>
    </rdf:RDF>
  </metadata>
  <g
     inkscape:label="Layer 1"
     inkscape:groupmode="layer"
     id="layer1"
     transform="translate(0,-87)">
    <g
       id="g4627"
       transform="matrix(1.5169836,0,0,1.5169836,-46.440506,-6.218977)">
      <g
         transform="translate(-41.633781,-16.642431)"
         id="g4567">
        <path
           style="fill:#001c5e;fill-opacity:1;stroke:none;stroke-width:0.26458332px;stroke-linecap:butt;stroke-linejoin:miter;stroke-opacity:1"
           d="m 148.54464,162.44048 -14.36309,-25.13542 c 0,0 -1.32292,-3.40179 -3.40179,0 -2.07887,3.40178 -37.041667,6.2366 -37.797619,6.04762 -0.09449,-0.0236 -0.233282,-0.0148 -0.407505,-0.006 -0.174224,0.008 -0.383882,0.0166 -0.620117,-0.008 -0.236236,-0.0251 -0.499047,-0.0834 -0.779577,-0.20781 -0.280529,-0.12439 -0.578776,-0.31486 -0.885881,-0.60424 -0.307106,-0.28939 -0.623071,-0.6777 -0.939035,-1.19779 -0.315965,-0.52009 -0.631929,-1.17195 -0.939035,-1.98844 -0.307106,-0.81648 -1.754508,-5.68229 -1.754508,-5.68229 l 3.088081,-1.56965 3.698092,-0.0661 3.327289,-2.54578 3.829855,-1.10765 -3.948216,0.43977 -3.553101,1.46169 -3.570867,-0.12993 -3.339897,1.33257 c 0,0 -0.117713,-3.01006 -0.004,-4.28647 0.113688,-1.2764 0.379453,-2.39704 0.751523,-3.38037 0.744141,-1.96666 1.846687,-2.44863 3.07511,-3.46444 1.228422,-1.01581 2.515904,-1.63002 3.496279,-1.99028 0.980376,-0.36025 1.653646,-0.46656 1.653646,-0.46656 0,0 22.678573,-9.26042 31.372023,-21.16667 8.69345,-11.90625 9.63839,-16.252975 9.63839,-16.252975 l 15.68601,25.702375 20.31147,24.3346 z"
           id="path4506"
           inkscape:connector-curvature="0"
           sodipodi:nodetypes="ccccsssssscccccccccsssscscccc" />
        <path
           style="fill:#ffffff;fill-opacity:0.53684238;stroke:none;stroke-width:0.26458332px;stroke-linecap:butt;stroke-linejoin:miter;stroke-opacity:1"
           d="m 136.50791,83.718917 c -3.48096,8.546177 -12.02713,18.842493 -12.02713,18.842493 l 25.12334,3.14042 c 0,0 -8.74499,-14.848768 -13.09621,-21.982913 z"
           id="path4529"
           inkscape:connector-curvature="0"
           sodipodi:nodetypes="cccc" />
      </g>
      <rect
         y="95.366272"
         x="78.070259"
         height="4.3582006"
         width="19.163195"
         id="rect4569-2"
         style="opacity:1;fill:#ffffff;fill-opacity:1;stroke:none;stroke-width:2.49568987;stroke-linecap:round;stroke-linejoin:round;stroke-miterlimit:4;stroke-dasharray:none;stroke-dashoffset:0;stroke-opacity:1" />
      <rect
         transform="rotate(90)"
         y="-89.697311"
         x="88.631943"
         height="4.3582006"
         width="18.227753"
         id="rect4569-9"
         style="opacity:1;fill:#ffffff;fill-opacity:1;stroke:none;stroke-width:2.4340148;stroke-linecap:round;stroke-linejoin:round;stroke-miterlimit:4;stroke-dasharray:none;stroke-dashoffset:0;stroke-opacity:1" />
    </g>
    <g
       id="g4620"
       transform="matrix(1.5169836,0,0,1.5169836,-46.440506,-6.218977)">
      <g
         transform="translate(-33.639881,-1.889881)"
         id="g4563">
        <path
           style="fill:#54005e;fill-opacity:0.90526321;stroke:none;stroke-width:0.26458332px;stroke-linecap:butt;stroke-linejoin:miter;stroke-opacity:1"
           d="m 153.98417,172.9245 -14.36309,-25.13542 c 0,0 -1.32292,-3.40179 -3.40179,0 -2.07887,3.40178 -37.04167,6.2366 -37.79762,6.04762 -0.0945,-0.0236 -0.23328,-0.0148 -0.40751,-0.006 -0.17422,0.008 -0.38388,0.0166 -0.62011,-0.008 -0.23624,-0.0251 -0.49905,-0.0834 -0.77958,-0.20781 -0.28053,-0.12439 -0.57878,-0.31486 -0.88588,-0.60424 -0.30711,-0.28939 -0.62307,-0.6777 -0.93904,-1.19779 -0.31596,-0.52009 -0.63193,-1.17195 -0.93903,-1.98844 -0.30711,-0.81648 -1.75451,-5.68229 -1.75451,-5.68229 l 3.08808,-1.56965 3.69809,-0.0661 3.32729,-2.54578 3.82986,-1.10765 -3.94822,0.43977 -3.5531,1.46169 -3.57087,-0.12993 -3.33989,1.33257 c 0,0 -0.11772,-3.01006 -0.004,-4.28647 0.11368,-1.2764 0.37945,-2.39704 0.75152,-3.38037 0.74414,-1.96666 1.84669,-2.44863 3.07511,-3.46444 1.22842,-1.01581 2.5159,-1.63002 3.49628,-1.99028 0.98037,-0.36025 1.65364,-0.46656 1.65364,-0.46656 0,0 22.67858,-9.26042 31.37203,-21.16667 8.69345,-11.90625 9.63839,-16.25298 9.63839,-16.25298 l 15.68601,25.70238 20.31147,24.3346 z"
           id="path4506-7"
           inkscape:connector-curvature="0"
           sodipodi:nodetypes="ccccsssssscccccccccsssscscccc" />
        <path
           style="fill:#ffffff;fill-opacity:0.53684238;stroke:none;stroke-width:0.26458332px;stroke-linecap:butt;stroke-linejoin:miter;stroke-opacity:1"
           d="m 141.94744,94.20294 c -3.48096,8.54617 -12.02713,18.84249 -12.02713,18.84249 l 25.12334,3.14042 c 0,0 -8.74499,-14.84877 -13.09621,-21.98291 z"
           id="path4529-5"
           inkscape:connector-curvature="0"
           sodipodi:nodetypes="cccc" />
      </g>
      <ellipse
         ry="7.8430057"
         rx="9.7328863"
         cy="122.44262"
         cx="100.36334"
         id="path4571"
         style="opacity:1;fill:#ffffff;fill-opacity:1;stroke:none;stroke-width:2.46499991;stroke-linecap:round;stroke-linejoin:round;stroke-miterlimit:4;stroke-dasharray:none;stroke-dashoffset:0;stroke-opacity:1" />
    </g>
    <g
       id="g4614"
       transform="matrix(1.5169836,0,0,1.5169836,-46.440506,-6.218977)">
      <g
         transform="translate(-25.645971,12.862669)"
         id="g4559">
        <path
           style="fill:#5e0002;fill-opacity:0.92631579;stroke:none;stroke-width:0.26458332px;stroke-linecap:butt;stroke-linejoin:miter;stroke-opacity:1"
           d="M 159.42369,183.40852 145.0606,158.2731 c 0,0 -1.32292,-3.40179 -3.40179,0 -2.07887,3.40178 -37.04167,6.2366 -37.79762,6.04762 -0.0945,-0.0236 -0.23328,-0.0148 -0.40751,-0.006 -0.17422,0.008 -0.38388,0.0166 -0.62011,-0.008 -0.23624,-0.0251 -0.49905,-0.0834 -0.77958,-0.20781 -0.28053,-0.12439 -0.57878,-0.31486 -0.88588,-0.60424 -0.30711,-0.28939 -0.62307,-0.6777 -0.93904,-1.19779 -0.31596,-0.52009 -0.63192,-1.17195 -0.93903,-1.98844 -0.30711,-0.81648 -1.75451,-5.68229 -1.75451,-5.68229 l 3.08808,-1.56965 3.69809,-0.0661 3.32729,-2.54578 3.82986,-1.10765 -3.94822,0.43977 -3.5531,1.46169 -3.57087,-0.12993 -3.33989,1.33257 c 0,0 -0.11772,-3.01006 -0.004,-4.28647 0.11369,-1.2764 0.37945,-2.39704 0.75152,-3.38037 0.74414,-1.96666 1.84669,-2.44863 3.07511,-3.46444 1.22842,-1.01581 2.5159,-1.63002 3.49628,-1.99028 0.98038,-0.36025 1.65365,-0.46656 1.65365,-0.46656 0,0 22.67857,-9.26042 31.37202,-21.16667 8.69345,-11.90625 9.63839,-16.25298 9.63839,-16.25298 l 15.68601,25.70238 20.31147,24.3346 z"
           id="path4506-3"
           inkscape:connector-curvature="0"
           sodipodi:nodetypes="ccccsssssscccccccccsssscscccc" />
        <path
           style="fill:#ffffff;fill-opacity:0.53684238;stroke:none;stroke-width:0.26458332px;stroke-linecap:butt;stroke-linejoin:miter;stroke-opacity:1"
           d="m 147.50138,104.35096 c -3.48096,8.54617 -12.02713,18.84249 -12.02713,18.84249 l 25.12334,3.14042 c 0,0 -8.74499,-14.84877 -13.09621,-21.98291 z"
           id="path4529-56"
           inkscape:connector-curvature="0"
           sodipodi:nodetypes="cccc" />
      </g>
      <rect
         y="145.79805"
         x="106.91086"
         height="4.3582006"
         width="21.034082"
         id="rect4569"
         style="opacity:1;fill:#ffffff;fill-opacity:1;stroke:none;stroke-width:2.61467934;stroke-linecap:round;stroke-linejoin:round;stroke-miterlimit:4;stroke-dasharray:none;stroke-dashoffset:0;stroke-opacity:1" />
    </g>
  </g>
</svg>
